<?xml version="1.0" encoding="UTF-8"?>
<svg id="Layer_1" data-name="Layer 1" xmlns="http://www.w3.org/2000/svg" viewBox="0 0 1080 1080">
  <defs>
    <style>
      .cls-1 {
        fill: #fff;
      }

      .cls-2 {
        fill: #3e4c52;
      }

      .cls-3 {
        fill: #dd3133;
      }

      .cls-4 {
        fill: #3b4951;
      }
    </style>
  </defs>
  <circle class="cls-3" cx="543.07" cy="550.58" r="517.23"/>
  <circle class="cls-1" cx="543.07" cy="550.58" r="430.57"/>
  <g>
    <path class="cls-4" d="M689.71,430.81l4.29,3.97,6.88,23.65c2.5,3.07,3.4,5.8,2.68,8.2-.74-.12-1.91-.7-3.08-.09,18.88,26.37,31.13,56.82,31.5,89.84.95,84.24-63.14,153.98-146.6,162.08-26.21,2.54-51.87.47-77.77-8.33l-1.12-56.04c-.05-2.48-.05-4.55,1.2-5.95l2.98,1.66.42,32.52,9.07-1.12c6.77-1.1,11.14.41,13.09,4.53,51.38,15.84,109.35-4.05,142.52-47.02,30.52-39.54,37.09-91.95,13.43-136.4-17.52-32.92-47.69-57.52-83.51-68.49-38.22-11.71-79.02-6.45-113.89,11.48-6.67,3.43-12.31,9.78-19.61,9.94l-39.71.89-.09,295.29-27.17-29.25.06-294.28,58.08-.41c5.24-.04,9.74-4.48,14.2-6.22,10.04-6.59,20.21-9.68,31.65-13.18,49.36-15.11,102.01-9.7,146.67,17.48-6.96-15.42-17.43-25.88-29.95-36.11-16.94-10.89-36.04-20.26-57.4-20.3l-189.11-.37-.02,336-27.32-28.63.26-335.56,217.44.74c56.04.19,101.66,39.05,119.88,89.47Z"/>
    <path class="cls-4" d="M703.57,466.62c-5.9-3.83-5.98-9.79-8.01-16.49l-5.85-19.32c52.8,18.32,91.64,58.79,98.78,116.1,6.89,55.34-9.81,110.13-44.61,153.85-43.49,54.65-110.2,86.06-180.08,85.8-19.27-.07-36.9-3.29-55.41-6.46l-44.47-83.24c-3.94-7.38-7.31-14.74-7.3-23.54l.14-107.54c.01-8.38,7.9-13.5,14.98-12.86,6.73.61,12.31,6.26,12.33,14.17l.25,107.54,41.45,78.75c54.94,15.6,120.4-2.99,164.49-38.12,38.74-30.86,64.32-74.1,70.95-123.08,4.03-29.78-.49-58.68-14.98-84.43-10.19-18.12-26.13-30.38-42.67-41.14Z"/>
    <path class="cls-2" d="M533.27,685.72c-7.91-2.44-16.26-2.14-25.07.86l-.5-38.46c-.09-7.19-1.26-14.39,2.48-21.24,10.2-18.72,24.62-1.12,55.5-.22,25.3.73,49.18-9.78,64.16-29.41,16.64-21.79,18.79-48.85,6.49-72.67-3.5-6.78-.11-14.87,5.94-17.93,5.01-2.54,13.42-2.46,16.92,3.86,20.03,36.13,14.16,80.44-14.23,110.43-28.51,30.11-70.14,39.91-111.02,27.68l-.67,37.1Z"/>
  </g>
</svg>