<?xml version="1.0" encoding="UTF-8"?>
<svg id="Layer_1" data-name="Layer 1" xmlns="http://www.w3.org/2000/svg" viewBox="0 0 1080 1080">
  <defs>
    <style>
      .cls-1 {
        fill: #3b4a52;
      }

      .cls-2 {
        fill: #3a4a52;
      }

      .cls-3 {
        fill: #726941;
      }

      .cls-4 {
        fill: #394952;
      }

      .cls-5 {
        fill: #746a43;
      }

      .cls-6 {
        fill: #6d653d;
      }

      .cls-7 {
        fill: #3a4952;
      }

      .cls-8 {
        fill: #3a4951;
      }

      .cls-9 {
        fill: #71693e;
      }

      .cls-10 {
        fill: #6d643d;
      }

      .cls-11 {
        fill: #fff;
      }

      .cls-12 {
        fill: #3e4c52;
      }

      .cls-13 {
        fill: #72683e;
      }

      .cls-14 {
        fill: #70673e;
      }

      .cls-15 {
        fill: #71683f;
      }

      .cls-16 {
        fill: #dd3133;
      }

      .cls-17 {
        fill: #3b4951;
      }

      .cls-18 {
        fill: #3a4851;
      }
    </style>
  </defs>
  <circle class="cls-16" cx="540" cy="540" r="499.04"/>
  <circle class="cls-11" cx="540.01" cy="540.02" r="415.43"/>
  <path class="cls-13" d="M566.86,668.54c-1.39.73-3.14.46-4.89.27l-.02-31.24c1.25-.27,3.62-.67,4.81.09l17.74,22,.15-22.18,4.81-.18.03,31.67-4.5-.16-18.04-22.61-.09,22.33Z"/>
  <path class="cls-9" d="M630.94,655.31l-15.29.02-.09,8.99,16.92.09c.29,1.59.23,2.76.11,4.55l-22.22.04.07-31.58,21.77-.09.05,4.58-16.59.09-.11,8.61,15.36.12.02,4.58Z"/>
  <path class="cls-6" d="M510.78,668.74c-6.81,2.05-14.16.71-18.62-4.38l2.66-3.37c3.82,3.39,8.96,4.89,13.94,3.46,1.86-.53,2.95-2.12,2.99-3.77.05-1.93-1.21-3.38-3.21-3.98l-9.29-2.8c-3.71-1.12-6.15-4.28-6.07-7.92s2.27-7.14,6.13-8.35c5.71-1.8,11.88-.53,16.72,2.97-.89,1.49-1.72,2.75-3.11,3.79-5.47-4.23-13.94-4.01-14.47.59-.91,7.81,18.26,3.25,18.73,14.75.17,4.19-1.93,7.68-6.41,9.03Z"/>
  <path class="cls-14" d="M669.44,668.15c-6.76,2.96-14.51,1.41-19.65-3.5.69-1.62,1.68-2.75,2.91-3.62,5.75,5.44,15.74,4.99,16.44.13.25-1.74-.65-3.66-2.58-4.24l-8.55-2.57c-2.04-.61-4.1-1.49-5.5-3.19-1.93-2.35-2.19-5.46-1.07-8.52,2.64-7.22,15.16-7.48,22.11-1.86-1.1,1.59-1.69,2.6-2.99,3.78-3.62-2.81-8.25-4.15-12.38-2.29-1.33.6-2.13,2.14-2.19,3.21-.23,3.96,6.06,4.9,10.98,5.97,3.97.86,6.99,3.38,7.52,7.09.55,3.84-.96,7.82-5.05,9.62Z"/>
  <path class="cls-10" d="M710.52,668.1c-6.65,2.99-14.62,1.5-19.75-3.47.75-1.58,1.68-2.57,2.79-3.77,5.65,5.72,16.56,5.2,16.8-.16.07-1.6-1.08-3.34-2.92-3.92l-10.41-3.26c-3.47-1.09-5.23-4.16-5.07-7.84.16-3.7,2.16-6.83,5.82-8.02,5.6-1.82,11.6-.74,16.67,2.72-.43,1.53-1.54,2.87-2.99,3.88-5.31-4.03-13.73-3.86-14.28.74-.74,6.14,11.43,4.85,16.13,9,2.25,1.98,2.72,4.91,2.2,8.11-.32,2.01-2.14,4.7-4.99,5.98Z"/>
  <path class="cls-3" d="M474.43,637.53l-.09,18.88c-.02,3.47-.86,7.01-3.32,9.43-3.52,3.47-8.48,4.33-13.22,3.54-6.13-1.03-10.27-5.79-10.31-12.05l-.15-19.74c1.73-.38,3.35-.39,5.07,0l.23,19.07c.06,4.68,3.47,7.98,7.76,8.26s8.64-2.35,8.69-7.03l.22-20.29c1.49-.36,2.81-.4,5.12-.06Z"/>
  <rect class="cls-5" x="535.94" y="637.3" width="5.14" height="31.75" transform="translate(-3.53 2.92) rotate(-.31)"/>
  <path class="cls-15" d="M428.62,663.52c-1.56,3.64-5.56,5.42-9.26,5.43l-15.28.04v-31.59s16.62.31,16.62.31c3.48.06,6.25,2.76,6.98,5.57.95,3.64-.26,6.73-3.75,9.2,4.32,2.18,6.68,6.39,4.69,11.04ZM423.96,659.71c-.08-2.03-1.72-4.3-4.17-4.38l-10.6-.33v9.5s10.23-.17,10.23-.17c2.9-.05,4.63-2.11,4.53-4.61ZM422.75,646.01c-.09-2.23-1.74-4.06-4.22-4.09l-9.34-.13v8.84s9.56-.16,9.56-.16c2.69-.04,4.1-2.31,4.01-4.46Z"/>
  <path class="cls-17" d="M601.89,373.01l1.48,1.36,2.37,8.13c.86,1.06,1.17,2,.92,2.82-.25-.04-.66-.24-1.06-.03,6.49,9.07,10.7,19.54,10.83,30.89.33,28.97-21.71,52.95-50.41,55.73-9.01.87-17.83.16-26.74-2.86l-.38-19.27c-.02-.85-.02-1.57.41-2.05l1.03.57.15,11.18,3.12-.39c2.33-.38,3.83.14,4.5,1.56,17.67,5.45,37.6-1.39,49-16.17,10.49-13.6,12.75-31.62,4.62-46.9-6.02-11.32-16.4-19.78-28.71-23.55-13.14-4.03-27.17-2.22-39.16,3.95-2.29,1.18-4.23,3.36-6.74,3.42l-13.65.31-.03,101.54-9.34-10.06.02-101.19,19.97-.14c1.8-.01,3.35-1.54,4.88-2.14,3.45-2.27,6.95-3.33,10.88-4.53,16.97-5.2,35.08-3.33,50.43,6.01-2.39-5.3-5.99-8.9-10.3-12.41-5.83-3.74-12.39-6.97-19.74-6.98l-65.02-.13v115.53s-9.4-9.84-9.4-9.84l.09-115.38,74.77.25c19.27.07,34.96,13.43,41.22,30.76Z"/>
  <path class="cls-17" d="M606.66,385.33c-2.03-1.32-2.06-3.37-2.75-5.67l-2.01-6.64c18.16,6.3,31.51,20.22,33.97,39.92,2.37,19.03-3.37,37.87-15.34,52.9-14.95,18.79-37.89,29.59-61.92,29.5-6.62-.02-12.69-1.13-19.05-2.22l-15.29-28.62c-1.36-2.54-2.51-5.07-2.51-8.09l.05-36.98c0-2.88,2.71-4.64,5.15-4.42s4.23,2.15,4.24,4.87l.09,36.98,14.25,27.08c18.89,5.36,41.4-1.03,56.56-13.11,13.32-10.61,22.12-25.48,24.4-42.32,1.39-10.24-.17-20.18-5.15-29.03-3.51-6.23-8.98-10.45-14.67-14.14Z"/>
  <path class="cls-12" d="M548.1,460.66c-2.72-.84-5.59-.74-8.62.3l-.17-13.22c-.03-2.47-.43-4.95.85-7.3,3.51-6.44,8.46-.38,19.08-.08,8.7.25,16.91-3.36,22.06-10.11,5.72-7.49,6.46-16.8,2.23-24.99-1.2-2.33-.04-5.11,2.04-6.17,1.72-.87,4.61-.85,5.82,1.33,6.89,12.42,4.87,27.66-4.89,37.97s-24.12,13.72-38.17,9.52l-.23,12.76Z"/>
  <polygon class="cls-17" points="481.73 601.73 472.16 601.88 472.15 552.87 452.46 552.73 452.48 543.76 500.85 543.75 500.9 552.78 481.69 552.83 481.73 601.73"/>
  <polygon class="cls-18" points="717.95 592.81 718.13 601.85 677.76 601.88 677.74 543.89 687.5 543.88 687.5 592.83 717.95 592.81"/>
  <path class="cls-7" d="M886.86,543.87l-8.36,32.34-6.8,25.69-9.6-.02-11.65-40.5-11.64,40.44-9.67-.04-15.17-57.85,10.31-.18,10.33,41.24,11.55-40.93c2.67-.59,5.27-.25,8.54-.28l11.7,40.71,10.35-40.6,10.12-.02Z"/>
  <path class="cls-2" d="M579.41,572.7c0,16.88-13.68,30.56-30.56,30.56s-30.56-13.68-30.56-30.56,13.68-30.56,30.56-30.56,30.56,13.68,30.56,30.56ZM548.82,551.81c-11.48,0-20.79,9.31-20.79,20.79s9.31,20.79,20.79,20.79,20.79-9.31,20.79-20.79-9.31-20.79-20.79-20.79Z"/>
  <polygon class="cls-7" points="430.03 601.78 421.52 601.86 388.77 559.92 388.66 601.92 378.95 601.9 378.93 543.85 387.91 543.78 420.33 584.41 420.39 543.84 430.04 543.86 430.03 601.78"/>
  <path class="cls-7" d="M796.86,572.64c0,16.83-13.65,30.48-30.48,30.48s-30.48-13.65-30.48-30.48,13.65-30.48,30.48-30.48,30.48,13.65,30.48,30.48ZM766.37,551.76c-11.48,0-20.79,9.31-20.79,20.79s9.31,20.79,20.79,20.79,20.79-9.31,20.79-20.79-9.31-20.79-20.79-20.79Z"/>
  <path class="cls-8" d="M643.5,579.37l-13.8-.03v-8.72s23.43.04,23.43.04v23.79c-6.37,4.83-13.61,7.83-21.57,8.39-13.09.93-25-6.02-30.23-17.46-5.48-11.97-2.7-25.71,6.77-34.78,5.18-4.96,11.26-7.5,18.39-8.08,9.44-.76,18.42,2,25.43,8.72l-6.26,7.09c-6.02-5.62-13.96-8.16-21.99-5.96-8.71,2.39-14.5,10.28-15.05,18.84-.6,9.18,4.54,17.67,13.29,20.97,7.24,2.73,15.11,1.31,21.53-2.73l.06-10.1Z"/>
  <path class="cls-4" d="M343.51,544l10.07-.2-.25,37.43c-.06,8.74-5.89,15.99-13.7,19.32-8,3.41-16.83,3.21-24.6-.63-7.12-3.52-12.44-10.23-12.5-18.44l-.3-37.58,9.9-.03.22,36c.05,7.88,7.32,13.26,14.82,13.64,8.85.45,15.91-5.61,16.37-14.45l-.04-35.05Z"/>
  <path class="cls-1" d="M260.89,582.98l-17.86.11-.08,18.79-9.82.02.04-58.15,28.95.12c5.79.02,10.88,3.22,14.49,7.46,4.82,7.31,4.69,16.5-.14,23.75-3.77,4.73-9.2,7.86-15.58,7.9ZM270.09,563.02c-.04-5.4-4.35-10.12-10.17-10.16l-16.92-.1.04,21.4,17.28-.23c6.11-.54,9.82-5.45,9.78-10.91Z"/>
</svg>